0
SECTION
2
HEADER
9
$INSUNITS
70
4
9
$ACADVER
1
AC1014
9
$HANDSEED
5
FFFF
0
ENDSEC
0
SECTION
2
TABLES
0
TABLE
2
VPORT
5
8
100
AcDbSymbolTable
0
ENDTAB
0
TABLE
2
LTYPE
5
5
100
AcDbSymbolTable
0
LTYPE
5
14
100
AcDbSymbolTableRecord
100
AcDbLinetypeTableRecord
2
BYBLOCK
70
0
0
LTYPE
5
15
100
AcDbSymbolTableRecord
100
AcDbLinetypeTableRecord
2
BYLAYER
70
0
0
ENDTAB
0
TABLE
2
LAYER
5
2
100
AcDbSymbolTable
70
2
0
LAYER
5
50
100
AcDbSymbolTableRecord
100
AcDbLayerTableRecord
2
0
70
0
6
CONTINUOUS
0
ENDTAB
0
TABLE
2
STYLE
5
3
100
AcDbSymbolTable
70
1
0
STYLE
5
11
100
AcDbSymbolTableRecord
100
AcDbTextStyleTableRecord
2
STANDARD
70
0
0
ENDTAB
0
TABLE
2
VIEW
5
6
100
AcDbSymbolTable
70
0
0
ENDTAB
0
TABLE
2
UCS
5
7
100
AcDbSymbolTable
70
0
0
ENDTAB
0
TABLE
2
APPID
5
9
100
AcDbSymbolTable
70
2
0
APPID
5
12
100
AcDbSymbolTableRecord
100
AcDbRegAppTableRecord
2
ACAD
70
0
0
ENDTAB
0
TABLE
2
DIMSTYLE
5
A
100
AcDbSymbolTable
70
1
0
ENDTAB
0
TABLE
2
BLOCK_RECORD
5
1
100
AcDbSymbolTable
70
1
0
BLOCK_RECORD
5
1F
100
AcDbSymbolTableRecord
100
AcDbBlockTableRecord
2
*MODEL_SPACE
0
BLOCK_RECORD
5
1B
100
AcDbSymbolTableRecord
100
AcDbBlockTableRecord
2
*PAPER_SPACE
0
ENDTAB
0
ENDSEC
0
SECTION
2
BLOCKS
0
BLOCK
5
20
100
AcDbEntity
100
AcDbBlockBegin
2
*MODEL_SPACE
0
ENDBLK
5
21
100
AcDbEntity
100
AcDbBlockEnd
0
BLOCK
5
1C
100
AcDbEntity
100
AcDbBlockBegin
2
*PAPER_SPACE
0
ENDBLK
5
1D
100
AcDbEntity
100
AcDbBlockEnd
0
ENDSEC
0
SECTION
2
ENTITIES
0
CIRCLE
5
100
100
AcDbEntity
8
0
100
AcDbCircle
10
-50
20
50
30
0
40
1.4999999999999947
210
-0
220
0
230
1
0
CIRCLE
5
101
100
AcDbEntity
8
0
100
AcDbCircle
10
-50
20
-50
30
0
40
1.5000000000000036
210
-0
220
0
230
1
0
CIRCLE
5
102
100
AcDbEntity
8
0
100
AcDbCircle
10
50
20
-50
30
0
40
1.5000000000000036
210
-0
220
0
230
1
0
CIRCLE
5
103
100
AcDbEntity
8
0
100
AcDbCircle
10
50
20
50
30
0
40
1.4999999999999947
210
-0
220
0
230
1
0
CIRCLE
5
104
100
AcDbEntity
8
0
100
AcDbCircle
10
80
20
-80
30
0
40
1.5000000000000036
210
-0
220
0
230
1
0
CIRCLE
5
105
100
AcDbEntity
8
0
100
AcDbCircle
10
-80
20
-80
30
0
40
1.5000000000000036
210
-0
220
0
230
1
0
CIRCLE
5
106
100
AcDbEntity
8
0
100
AcDbCircle
10
80
20
80
30
0
40
1.5000000000000036
210
-0
220
0
230
1
0
CIRCLE
5
107
100
AcDbEntity
8
0
100
AcDbCircle
10
-80
20
80
30
0
40
1.5000000000000036
210
-0
220
0
230
1
0
ARC
5
108
100
AcDbEntity
8
0
100
AcDbCircle
10
-14.999999999999973
20
-8.3559713016758988e-17
30
0
40
2.0547499999999808
210
-0
220
0
230
1
100
AcDbArc
50
-14.952712866337624
51
14.952712866338794
0
SPLINE
5
109
100
AcDbEntity
8
0
100
AcDbSpline
70
0
71
3
72
10
73
6
74
0
42
0.000000001
43
0.0000000001
44
0.0000000001
40
0.31931444256938568
40
0.31931444256938568
40
0.31931444256938568
40
0.31931444256938568
40
0.32859596045917294
40
0.32859596045917294
40
0.37694081721163553
40
0.37694081721163553
40
0.37694081721163553
40
0.37694081721163553
10
-13.289438709063644
20
-1.0363300970010705
30
0
10
-13.270892355512434
20
-1.0114665968765562
30
0
10
-13.252918874096819
20
-0.98615864624377347
30
0
10
-13.144972667181543
20
-0.82640357925787655
30
0
10
-13.071000534094079
20
-0.68188635157299937
30
0
10
-13.014825674328272
20
-0.53017021718862678
30
0
0
ARC
5
110
100
AcDbEntity
8
0
100
AcDbCircle
10
-14.999999999999973
20
-8.3559713016758988e-17
30
0
40
1.9999999999999831
210
0
220
-0
230
1
100
AcDbArc
50
31.209246874520513
51
328.79075312548531
0
SPLINE
5
111
100
AcDbEntity
8
0
100
AcDbSpline
70
0
71
3
72
8
73
4
74
0
42
0.000000001
43
0.0000000001
44
0.0000000001
40
0
40
0
40
0
40
0
40
0.058005531355514069
40
0.058005531355514069
40
0.058005531355514069
40
0.058005531355514069
10
-13.014825674328286
20
0.53017021718866919
30
0
10
-13.081962387869799
20
0.71149194538261362
30
0
10
-13.174335413978845
20
0.88203275237047363
30
0
10
-13.289438709063763
20
1.0363300970012341
30
0
0
ARC
5
112
100
AcDbEntity
8
0
100
AcDbCircle
10
-1.1163939777017524e-15
20
14.999999999999973
30
0
40
2.0547499999999803
210
0
220
0
230
1
100
AcDbArc
50
255.04728713366242
51
284.95271286633874
0
SPLINE
5
113
100
AcDbEntity
8
0
100
AcDbSpline
70
0
71
3
72
10
73
6
74
0
42
0.000000001
43
0.0000000001
44
0.0000000001
40
0.31931444256938557
40
0.31931444256938557
40
0.31931444256938557
40
0.31931444256938557
40
0.32859596045917294
40
0.32859596045917294
40
0.37694081721163553
40
0.37694081721163553
40
0.37694081721163553
40
0.37694081721163553
10
-1.036330097001072
20
13.289438709063644
30
0
10
-1.0114665968765577
20
13.270892355512437
30
0
10
-0.98615864624377458
20
13.252918874096821
30
0
10
-0.82640357925787722
20
13.144972667181543
30
0
10
-0.68188635157300004
20
13.071000534094079
30
0
10
-0.53017021718862756
20
13.014825674328272
30
0
0
ARC
5
114
100
AcDbEntity
8
0
100
AcDbCircle
10
-1.1163939777017524e-15
20
14.999999999999973
30
0
40
1.9999999999999831
210
-0
220
0
230
1
100
AcDbArc
50
-58.790753125479505
51
238.79075312548531
0
SPLINE
5
115
100
AcDbEntity
8
0
100
AcDbSpline
70
0
71
3
72
8
73
4
74
0
42
0.000000001
43
0.0000000001
44
0.0000000001
40
0
40
0
40
0
40
0
40
0.058005531355514069
40
0.058005531355514069
40
0.058005531355514069
40
0.058005531355514069
10
0.53017021718866841
20
13.014825674328286
30
0
10
0.71149194538261284
20
13.081962387869799
30
0
10
0.88203275237047296
20
13.174335413978845
30
0
10
1.0363300970012332
20
13.289438709063763
30
0
0
ARC
5
116
100
AcDbEntity
8
0
100
AcDbCircle
10
2.6653031999276843e-15
20
-14.999999999999972
30
0
40
2.0547499999999785
210
0
220
-0
230
1
100
AcDbArc
50
75.04728713366238
51
104.95271286633886
0
SPLINE
5
117
100
AcDbEntity
8
0
100
AcDbSpline
70
0
71
3
72
10
73
6
74
0
42
0.000000001
43
0.0000000001
44
0.0000000001
40
0.31931444256938568
40
0.31931444256938568
40
0.31931444256938568
40
0.31931444256938568
40
0.32859596045917294
40
0.32859596045917294
40
0.37694081721163553
40
0.37694081721163553
40
0.37694081721163553
40
0.37694081721163553
10
1.0363300970010729
20
-13.289438709063644
30
0
10
1.0114665968765588
20
-13.270892355512434
30
0
10
0.98615864624377603
20
-13.252918874096819
30
0
10
0.82640357925787888
20
-13.144972667181543
30
0
10
0.6818863515730017
20
-13.071000534094079
30
0
10
0.53017021718862922
20
-13.014825674328272
30
0
0
ARC
5
118
100
AcDbEntity
8
0
100
AcDbCircle
10
2.6653031999276843e-15
20
-14.999999999999972
30
0
40
1.9999999999999829
210
0
220
0
230
1
100
AcDbArc
50
-238.79075312547951
51
58.790753125485296
0
SPLINE
5
119
100
AcDbEntity
8
0
100
AcDbSpline
70
0
71
3
72
8
73
4
74
0
42
0.000000001
43
0.0000000001
44
0.0000000001
40
0
40
0
40
0
40
0
40
0.058005531355514069
40
0.058005531355514069
40
0.058005531355514069
40
0.058005531355514069
10
-0.53017021718866686
20
-13.014825674328286
30
0
10
-0.71149194538261129
20
-13.081962387869799
30
0
10
-0.8820327523704713
20
-13.174335413978845
30
0
10
-1.0363300970012315
20
-13.289438709063763
30
0
0
ARC
5
120
100
AcDbEntity
8
0
100
AcDbCircle
10
14.999999999999975
20
1.7205527019991205e-15
30
0
40
2.054749999999983
210
0
220
0
230
1
100
AcDbArc
50
165.04728713366239
51
194.95271286633871
0
SPLINE
5
121
100
AcDbEntity
8
0
100
AcDbSpline
70
0
71
3
72
10
73
6
74
0
42
0.000000001
43
0.0000000001
44
0.0000000001
40
0.31931444256938568
40
0.31931444256938568
40
0.31931444256938568
40
0.31931444256938568
40
0.32859596045917294
40
0.32859596045917294
40
0.37694081721163553
40
0.37694081721163553
40
0.37694081721163553
40
0.37694081721163553
10
13.289438709063644
20
1.036330097001072
30
0
10
13.270892355512434
20
1.0114665968765579
30
0
10
13.252918874096819
20
0.98615864624377525
30
0
10
13.144972667181543
20
0.82640357925787811
30
0
10
13.071000534094079
20
0.68188635157300093
30
0
10
13.014825674328272
20
0.53017021718862845
30
0
0
ARC
5
122
100
AcDbEntity
8
0
100
AcDbCircle
10
14.999999999999975
20
1.7205527019991205e-15
30
0
40
1.9999999999999858
210
0
220
0
230
1
100
AcDbArc
50
-148.79075312547951
51
148.79075312548537
0
SPLINE
5
123
100
AcDbEntity
8
0
100
AcDbSpline
70
0
71
3
72
8
73
4
74
0
42
0.000000001
43
0.0000000001
44
0.0000000001
40
0
40
0
40
0
40
0
40
0.058005531355514069
40
0.058005531355514069
40
0.058005531355514069
40
0.058005531355514069
10
13.014825674328286
20
-0.53017021718866753
30
0
10
13.081962387869799
20
-0.71149194538261196
30
0
10
13.174335413978845
20
-0.88203275237047207
30
0
10
13.289438709063763
20
-1.0363300970012326
30
0
0
ARC
5
124
100
AcDbEntity
8
0
100
AcDbCircle
10
-30.000000000000004
20
-4.3162849944001682e-15
30
0
40
2.0547500000000118
210
-0
220
0
230
1
100
AcDbArc
50
-14.952712866337979
51
14.952712866337462
0
SPLINE
5
125
100
AcDbEntity
8
0
100
AcDbSpline
70
0
71
3
72
10
73
6
74
0
42
0.000000001
43
0.0000000001
44
0.0000000001
40
0.31931444256936542
40
0.31931444256936542
40
0.31931444256936542
40
0.31931444256936542
40
0.32859596045917622
40
0.32859596045917622
40
0.37694081721163913
40
0.37694081721163913
40
0.37694081721163913
40
0.37694081721163913
10
-28.289438709063802
20
-1.0363300970012872
30
0
10
-28.27089235551254
20
-1.0114665968767129
30
0
10
-28.252918874096878
20
-0.98615864624386651
30
0
10
-28.144972667181545
20
-0.8264035792578982
30
0
10
-28.071000534094086
20
-0.68188635157300992
30
0
10
-28.014825674328279
20
-0.53017021718865376
30
0
0
ARC
5
126
100
AcDbEntity
8
0
100
AcDbCircle
10
-30.000000000000004
20
-4.3162849944001682e-15
30
0
40
2.0000000000000036
210
0
220
-0
230
1
100
AcDbArc
50
31.209246874524673
51
328.79075312547815
0
SPLINE
5
127
100
AcDbEntity
8
0
100
AcDbSpline
70
0
71
3
72
8
73
4
74
0
42
0.000000001
43
0.0000000001
44
0.0000000001
40
0
40
0
40
0
40
0
40
0.058005531355533928
40
0.058005531355533928
40
0.058005531355533928
40
0.058005531355533928
10
-28.014825674328279
20
0.53017021718862767
30
0
10
-28.081962387869819
20
0.71149194538263416
30
0
10
-28.174335413978902
20
0.88203275237055045
30
0
10
-28.289438709063866
20
1.0363300970013583
30
0
0
ARC
5
128
100
AcDbEntity
8
0
100
AcDbCircle
10
-6.1817865275540276e-15
20
30.000000000000004
30
0
40
2.0547500000000118
210
0
220
0
230
1
100
AcDbArc
50
255.04728713366202
51
284.95271286633749
0
SPLINE
5
129
100
AcDbEntity
8
0
100
AcDbSpline
70
0
71
3
72
10
73
6
74
0
42
0.000000001
43
0.0000000001
44
0.0000000001
40
0.31931444256936525
40
0.31931444256936525
40
0.31931444256936525
40
0.31931444256936525
40
0.32859596045917622
40
0.32859596045917622
40
0.37694081721163913
40
0.37694081721163913
40
0.37694081721163913
40
0.37694081721163913
10
-1.0363300970012925
20
28.289438709063795
30
0
10
-1.0114665968767154
20
28.270892355512544
30
0
10
-0.98615864624386862
20
28.252918874096878
30
0
10
-0.82640357925789987
20
28.144972667181545
30
0
10
-0.68188635157301158
20
28.071000534094086
30
0
10
-0.53017021718865698
20
28.014825674328275
30
0
0
ARC
5
130
100
AcDbEntity
8
0
100
AcDbCircle
10
-6.1817865275540276e-15
20
30.000000000000004
30
0
40
1.9999999999999987
210
-0
220
0
230
1
100
AcDbArc
50
-58.790753125475334
51
238.79075312547823
0
SPLINE
5
131
100
AcDbEntity
8
0
100
AcDbSpline
70
0
71
3
72
8
73
4
74
0
42
0.000000001
43
0.0000000001
44
0.0000000001
40
0
40
0
40
0
40
0
40
0.058005531355534004
40
0.058005531355534004
40
0.058005531355534004
40
0.058005531355534004
10
0.53017021718862645
20
28.014825674328275
30
0
10
0.71149194538263294
20
28.081962387869815
30
0
10
0.88203275237054934
20
28.174335413978898
30
0
10
1.0363300970013585
20
28.289438709063862
30
0
0
ARC
5
132
100
AcDbEntity
8
0
100
AcDbCircle
10
30.000000000000004
20
7.7226959288788738e-15
30
0
40
2.0547500000000123
210
0
220
0
230
1
100
AcDbArc
50
165.047287133662
51
194.95271286633746
0
SPLINE
5
133
100
AcDbEntity
8
0
100
AcDbSpline
70
0
71
3
72
10
73
6
74
0
42
0.000000001
43
0.0000000001
44
0.0000000001
40
0.31931444256936542
40
0.31931444256936542
40
0.31931444256936542
40
0.31931444256936542
40
0.32859596045917622
40
0.32859596045917622
40
0.37694081721163913
40
0.37694081721163913
40
0.37694081721163913
40
0.37694081721163913
10
28.289438709063802
20
1.036330097001291
30
0
10
28.27089235551254
20
1.011466596876716
30
0
10
28.252918874096878
20
0.98615864624386984
30
0
10
28.144972667181545
20
0.82640357925790164
30
0
10
28.071000534094086
20
0.68188635157301336
30
0
10
28.014825674328279
20
0.53017021718865753
30
0
0
ARC
5
134
100
AcDbEntity
8
0
100
AcDbCircle
10
30.000000000000004
20
7.7226959288788738e-15
30
0
40
2
210
0
220
0
230
1
100
AcDbArc
50
-148.79075312547525
51
148.79075312547818
0
SPLINE
5
135
100
AcDbEntity
8
0
100
AcDbSpline
70
0
71
3
72
8
73
4
74
0
42
0.000000001
43
0.0000000001
44
0.0000000001
40
0
40
0
40
0
40
0
40
0.058005531355534004
40
0.058005531355534004
40
0.058005531355534004
40
0.058005531355534004
10
28.014825674328279
20
-0.53017021718862445
30
0
10
28.081962387869815
20
-0.71149194538263094
30
0
10
28.174335413978898
20
-0.88203275237054757
30
0
10
28.289438709063866
20
-1.0363300970013554
30
0
0
ARC
5
136
100
AcDbEntity
8
0
100
AcDbCircle
10
9.3613358171981601e-15
20
-30.000000000000004
30
0
40
2.0547500000000123
210
0
220
-0
230
1
100
AcDbArc
50
75.047287133661996
51
104.95271286633751
0
SPLINE
5
137
100
AcDbEntity
8
0
100
AcDbSpline
70
0
71
3
72
10
73
6
74
0
42
0.000000001
43
0.0000000001
44
0.0000000001
40
0.31931444256936531
40
0.31931444256936531
40
0.31931444256936531
40
0.31931444256936531
40
0.32859596045917622
40
0.32859596045917622
40
0.37694081721163913
40
0.37694081721163913
40
0.37694081721163913
40
0.37694081721163913
10
1.0363300970012914
20
-28.289438709063806
30
0
10
1.0114665968767185
20
-28.27089235551254
30
0
10
0.98615864624387195
20
-28.252918874096878
30
0
10
0.82640357925790331
20
-28.144972667181545
30
0
10
0.68188635157301503
20
-28.071000534094086
30
0
10
0.53017021718865742
20
-28.014825674328279
30
0
0
ARC
5
138
100
AcDbEntity
8
0
100
AcDbCircle
10
9.3613358171981601e-15
20
-30.000000000000004
30
0
40
1.9999999999999993
210
0
220
0
230
1
100
AcDbArc
50
-238.79075312547528
51
58.790753125478169
0
SPLINE
5
139
100
AcDbEntity
8
0
100
AcDbSpline
70
0
71
3
72
8
73
4
74
0
42
0.000000001
43
0.0000000001
44
0.0000000001
40
0
40
0
40
0
40
0
40
0.058005531355534004
40
0.058005531355534004
40
0.058005531355534004
40
0.058005531355534004
10
-0.53017021718862067
20
-28.014825674328279
30
0
10
-0.71149194538262872
20
-28.081962387869815
30
0
10
-0.88203275237054568
20
-28.174335413978898
30
0
10
-1.0363300970013509
20
-28.289438709063866
30
0
0
CIRCLE
5
140
100
AcDbEntity
8
0
100
AcDbCircle
10
-5.2658799586963929e-16
20
1.6164692934405121e-15
30
0
40
2.4999999999999996
210
0
220
-0
230
1
0
LWPOLYLINE
5
141
100
AcDbEntity
8
0
100
AcDbPolyline
90
4
70
1
43
0.0
10
95
20
95
10
-95
20
95
10
-95
20
-95
10
95
20
-95
0
ENDSEC
0
SECTION
2
OBJECTS
0
DICTIONARY
5
C
100
AcDbDictionary
3
ACAD_GROUP
350
D
3
ACAD_MLINESTYLE
350
17
0
DICTIONARY
5
D
100
AcDbDictionary
0
DICTIONARY
5
1A
330
C
100
AcDbDictionary
0
DICTIONARY
5
17
100
AcDbDictionary
0
ENDSEC
0
EOF
