0
SECTION
2
HEADER
9
$INSUNITS
70
4
9
$ACADVER
1
AC1014
9
$HANDSEED
5
FFFF
0
ENDSEC
0
SECTION
2
TABLES
0
TABLE
2
VPORT
5
8
100
AcDbSymbolTable
0
ENDTAB
0
TABLE
2
LTYPE
5
5
100
AcDbSymbolTable
0
LTYPE
5
14
100
AcDbSymbolTableRecord
100
AcDbLinetypeTableRecord
2
BYBLOCK
70
0
0
LTYPE
5
15
100
AcDbSymbolTableRecord
100
AcDbLinetypeTableRecord
2
BYLAYER
70
0
0
ENDTAB
0
TABLE
2
LAYER
5
2
100
AcDbSymbolTable
70
2
0
LAYER
5
50
100
AcDbSymbolTableRecord
100
AcDbLayerTableRecord
2
0
70
0
6
CONTINUOUS
0
ENDTAB
0
TABLE
2
STYLE
5
3
100
AcDbSymbolTable
70
1
0
STYLE
5
11
100
AcDbSymbolTableRecord
100
AcDbTextStyleTableRecord
2
STANDARD
70
0
0
ENDTAB
0
TABLE
2
VIEW
5
6
100
AcDbSymbolTable
70
0
0
ENDTAB
0
TABLE
2
UCS
5
7
100
AcDbSymbolTable
70
0
0
ENDTAB
0
TABLE
2
APPID
5
9
100
AcDbSymbolTable
70
2
0
APPID
5
12
100
AcDbSymbolTableRecord
100
AcDbRegAppTableRecord
2
ACAD
70
0
0
ENDTAB
0
TABLE
2
DIMSTYLE
5
A
100
AcDbSymbolTable
70
1
0
ENDTAB
0
TABLE
2
BLOCK_RECORD
5
1
100
AcDbSymbolTable
70
1
0
BLOCK_RECORD
5
1F
100
AcDbSymbolTableRecord
100
AcDbBlockTableRecord
2
*MODEL_SPACE
0
BLOCK_RECORD
5
1B
100
AcDbSymbolTableRecord
100
AcDbBlockTableRecord
2
*PAPER_SPACE
0
ENDTAB
0
ENDSEC
0
SECTION
2
BLOCKS
0
BLOCK
5
20
100
AcDbEntity
100
AcDbBlockBegin
2
*MODEL_SPACE
0
ENDBLK
5
21
100
AcDbEntity
100
AcDbBlockEnd
0
BLOCK
5
1C
100
AcDbEntity
100
AcDbBlockBegin
2
*PAPER_SPACE
0
ENDBLK
5
1D
100
AcDbEntity
100
AcDbBlockEnd
0
ENDSEC
0
SECTION
2
ENTITIES
0
CIRCLE
5
100
100
AcDbEntity
8
0
100
AcDbCircle
10
-6.0579849618785393e-46
20
1.8596220855412864e-45
30
0
40
4
210
0
220
-0
230
1
0
ARC
5
101
100
AcDbEntity
8
0
100
AcDbCircle
10
-29.999999999999996
20
-7.5342099431824982e-15
30
0
40
2.0547499999999985
210
-0
220
0
230
1
100
AcDbArc
50
-14.952712866337979
51
14.952712866337636
0
SPLINE
5
102
100
AcDbEntity
8
0
100
AcDbSpline
70
0
71
3
72
10
73
6
74
0
42
0.000000001
43
0.0000000001
44
0.0000000001
40
0.31931444256936503
40
0.31931444256936503
40
0.31931444256936503
40
0.31931444256936503
40
0.32859596045917622
40
0.32859596045917622
40
0.37694081721163913
40
0.37694081721163913
40
0.37694081721163913
40
0.37694081721163913
10
-28.289438709063802
20
-1.036330097001291
30
0
10
-28.270892355512544
20
-1.0114665968767154
30
0
10
-28.252918874096878
20
-0.98615864624386818
30
0
10
-28.144972667181545
20
-0.82640357925789876
30
0
10
-28.071000534094086
20
-0.68188635157301047
30
0
10
-28.014825674328279
20
-0.53017021718865442
30
0
0
ARC
5
103
100
AcDbEntity
8
0
100
AcDbCircle
10
-29.999999999999996
20
-7.5342099431824982e-15
30
0
40
1.9999999999999978
210
0
220
-0
230
1
100
AcDbArc
50
31.209246874524872
51
328.79075312547809
0
SPLINE
5
104
100
AcDbEntity
8
0
100
AcDbSpline
70
0
71
3
72
8
73
4
74
0
42
0.000000001
43
0.0000000001
44
0.0000000001
40
0
40
0
40
0
40
0
40
0.058005531355534004
40
0.058005531355534004
40
0.058005531355534004
40
0.058005531355534004
10
-28.014825674328279
20
0.53017021718862634
30
0
10
-28.081962387869815
20
0.71149194538263383
30
0
10
-28.174335413978898
20
0.88203275237055045
30
0
10
-28.289438709063866
20
1.0363300970013576
30
0
0
ARC
5
105
100
AcDbEntity
8
0
100
AcDbCircle
10
-14.999999999999993
20
-4.3643589771578126e-16
30
0
40
2.0547499999999981
210
-0
220
0
230
1
100
AcDbArc
50
-14.952712866337521
51
14.95271286633867
0
SPLINE
5
106
100
AcDbEntity
8
0
100
AcDbSpline
70
0
71
3
72
10
73
6
74
0
42
0.000000001
43
0.0000000001
44
0.0000000001
40
0.31931444256937475
40
0.31931444256937475
40
0.31931444256937475
40
0.31931444256937475
40
0.32859596045917294
40
0.32859596045917294
40
0.37694081721163553
40
0.37694081721163553
40
0.37694081721163553
40
0.37694081721163553
10
-13.28943870906371
20
-1.0363300970011586
30
0
10
-13.270892355512478
20
-1.0114665968766161
30
0
10
-13.252918874096842
20
-0.98615864624380434
30
0
10
-13.144972667181545
20
-0.82640357925787711
30
0
10
-13.071000534094082
20
-0.68188635157299993
30
0
10
-13.014825674328275
20
-0.53017021718862789
30
0
0
ARC
5
107
100
AcDbEntity
8
0
100
AcDbCircle
10
-14.999999999999993
20
-4.3643589771578126e-16
30
0
40
1.9999999999999996
210
0
220
-0
230
1
100
AcDbArc
50
31.209246874520183
51
328.79075312548241
0
SPLINE
5
108
100
AcDbEntity
8
0
100
AcDbSpline
70
0
71
3
72
8
73
4
74
0
42
0.000000001
43
0.0000000001
44
0.0000000001
40
0
40
0
40
0
40
0
40
0.058005531355514069
40
0.058005531355514069
40
0.058005531355514069
40
0.058005531355514069
10
-13.014825674328288
20
0.53017021718866819
30
0
10
-13.081962387869801
20
0.71149194538261296
30
0
10
-13.174335413978849
20
0.88203275237047318
30
0
10
-13.289438709063766
20
1.0363300970012335
30
0
0
ARC
5
109
100
AcDbEntity
8
0
100
AcDbCircle
10
1.3045120539345588e-14
20
-29.999999999999996
30
0
40
2.0547499999999981
210
0
220
-0
230
1
100
AcDbArc
50
75.047287133662024
51
104.95271286633768
0
SPLINE
5
110
100
AcDbEntity
8
0
100
AcDbSpline
70
0
71
3
72
10
73
6
74
0
42
0.000000001
43
0.0000000001
44
0.0000000001
40
0.31931444256936503
40
0.31931444256936503
40
0.31931444256936503
40
0.31931444256936503
40
0.32859596045917622
40
0.32859596045917622
40
0.37694081721163913
40
0.37694081721163913
40
0.37694081721163913
40
0.37694081721163913
10
1.0363300970012967
20
-28.289438709063802
30
0
10
1.0114665968767205
20
-28.270892355512544
30
0
10
0.98615864624387317
20
-28.252918874096878
30
0
10
0.82640357925790386
20
-28.144972667181545
30
0
10
0.68188635157301558
20
-28.071000534094086
30
0
10
0.53017021718865975
20
-28.014825674328279
30
0
0
ARC
5
111
100
AcDbEntity
8
0
100
AcDbCircle
10
1.3045120539345588e-14
20
-29.999999999999996
30
0
40
1.9999999999999978
210
0
220
0
230
1
100
AcDbArc
50
-238.79075312547513
51
58.790753125478076
0
SPLINE
5
112
100
AcDbEntity
8
0
100
AcDbSpline
70
0
71
3
72
8
73
4
74
0
42
0.000000001
43
0.0000000001
44
0.0000000001
40
0
40
0
40
0
40
0
40
0.058005531355534004
40
0.058005531355534004
40
0.058005531355534004
40
0.058005531355534004
10
-0.53017021718862045
20
-28.014825674328279
30
0
10
-0.71149194538262839
20
-28.081962387869815
30
0
10
-0.88203275237054513
20
-28.174335413978898
30
0
10
-1.0363300970013514
20
-28.289438709063866
30
0
0
ARC
5
113
100
AcDbEntity
8
0
100
AcDbCircle
10
3.1918911957973247e-15
20
-14.999999999999993
30
0
40
2.0547499999999981
210
0
220
-0
230
1
100
AcDbArc
50
75.047287133662522
51
104.95271286633869
0
SPLINE
5
114
100
AcDbEntity
8
0
100
AcDbSpline
70
0
71
3
72
10
73
6
74
0
42
0.000000001
43
0.0000000001
44
0.0000000001
40
0.31931444256937475
40
0.31931444256937475
40
0.31931444256937475
40
0.31931444256937475
40
0.32859596045917294
40
0.32859596045917294
40
0.37694081721163553
40
0.37694081721163553
40
0.37694081721163553
40
0.37694081721163553
10
1.0363300970011615
20
-13.28943870906371
30
0
10
1.0114665968766188
20
-13.270892355512478
30
0
10
0.98615864624380678
20
-13.252918874096842
30
0
10
0.82640357925787944
20
-13.144972667181545
30
0
10
0.68188635157300226
20
-13.071000534094082
30
0
10
0.53017021718863044
20
-13.014825674328275
30
0
0
ARC
5
115
100
AcDbEntity
8
0
100
AcDbCircle
10
3.1918911957973247e-15
20
-14.999999999999993
30
0
40
1.9999999999999996
210
0
220
0
230
1
100
AcDbArc
50
-238.79075312547982
51
58.790753125482468
0
SPLINE
5
116
100
AcDbEntity
8
0
100
AcDbSpline
70
0
71
3
72
8
73
4
74
0
42
0.000000001
43
0.0000000001
44
0.0000000001
40
0
40
0
40
0
40
0
40
0.058005531355514069
40
0.058005531355514069
40
0.058005531355514069
40
0.058005531355514069
10
-0.53017021718866608
20
-13.014825674328288
30
0
10
-0.71149194538261074
20
-13.081962387869801
30
0
10
-0.88203275237047074
20
-13.174335413978849
30
0
10
-1.036330097001231
20
-13.289438709063766
30
0
0
ARC
5
117
100
AcDbEntity
8
0
100
AcDbCircle
10
29.999999999999996
20
1.1208150340624559e-14
30
0
40
2.0547499999999981
210
0
220
0
230
1
100
AcDbArc
50
165.04728713366205
51
194.95271286633769
0
SPLINE
5
118
100
AcDbEntity
8
0
100
AcDbSpline
70
0
71
3
72
10
73
6
74
0
42
0.000000001
43
0.0000000001
44
0.0000000001
40
0.31931444256936503
40
0.31931444256936503
40
0.31931444256936503
40
0.31931444256936503
40
0.32859596045917622
40
0.32859596045917622
40
0.37694081721163913
40
0.37694081721163913
40
0.37694081721163913
40
0.37694081721163913
10
28.289438709063802
20
1.036330097001295
30
0
10
28.270892355512544
20
1.0114665968767189
30
0
10
28.252918874096878
20
0.98615864624387162
30
0
10
28.144972667181545
20
0.8264035792579022
30
0
10
28.071000534094086
20
0.68188635157301392
30
0
10
28.014825674328279
20
0.53017021718865809
30
0
0
ARC
5
119
100
AcDbEntity
8
0
100
AcDbCircle
10
29.999999999999996
20
1.1208150340624559e-14
30
0
40
1.9999999999999978
210
0
220
0
230
1
100
AcDbArc
50
-148.79075312547513
51
148.79075312547809
0
SPLINE
5
120
100
AcDbEntity
8
0
100
AcDbSpline
70
0
71
3
72
8
73
4
74
0
42
0.000000001
43
0.0000000001
44
0.0000000001
40
0
40
0
40
0
40
0
40
0.058005531355534004
40
0.058005531355534004
40
0.058005531355534004
40
0.058005531355534004
10
28.014825674328279
20
-0.53017021718862267
30
0
10
28.081962387869815
20
-0.71149194538263016
30
0
10
28.174335413978898
20
-0.8820327523705469
30
0
10
28.289438709063866
20
-1.0363300970013536
30
0
0
ARC
5
121
100
AcDbEntity
8
0
100
AcDbCircle
10
14.999999999999993
20
2.2734060964368099e-15
30
0
40
2.0547499999999981
210
0
220
0
230
1
100
AcDbArc
50
165.04728713366251
51
194.95271286633866
0
SPLINE
5
122
100
AcDbEntity
8
0
100
AcDbSpline
70
0
71
3
72
10
73
6
74
0
42
0.000000001
43
0.0000000001
44
0.0000000001
40
0.31931444256937475
40
0.31931444256937475
40
0.31931444256937475
40
0.31931444256937475
40
0.32859596045917294
40
0.32859596045917294
40
0.37694081721163553
40
0.37694081721163553
40
0.37694081721163553
40
0.37694081721163553
10
13.28943870906371
20
1.0363300970011604
30
0
10
13.270892355512478
20
1.0114665968766181
30
0
10
13.252918874096842
20
0.986158646243806
30
0
10
13.144972667181545
20
0.82640357925787855
30
0
10
13.071000534094082
20
0.68188635157300137
30
0
10
13.014825674328275
20
0.53017021718862967
30
0
0
ARC
5
123
100
AcDbEntity
8
0
100
AcDbCircle
10
14.999999999999993
20
2.2734060964368099e-15
30
0
40
1.9999999999999996
210
0
220
0
230
1
100
AcDbArc
50
-148.7907531254798
51
148.7907531254825
0
SPLINE
5
124
100
AcDbEntity
8
0
100
AcDbSpline
70
0
71
3
72
8
73
4
74
0
42
0.000000001
43
0.0000000001
44
0.0000000001
40
0
40
0
40
0
40
0
40
0.058005531355514069
40
0.058005531355514069
40
0.058005531355514069
40
0.058005531355514069
10
13.014825674328288
20
-0.53017021718866686
30
0
10
13.081962387869801
20
-0.7114919453826114
30
0
10
13.174335413978849
20
-0.88203275237047163
30
0
10
13.289438709063766
20
-1.0363300970012319
30
0
0
LWPOLYLINE
5
125
100
AcDbEntity
8
0
100
AcDbPolyline
90
4
70
1
43
0.0
10
-34.999999999999979
20
-35.00000052154067
10
35.000000000000007
20
-35.000000521540642
10
34.999999999999986
20
35.000000521540642
10
-35
20
35.00000052154062
0
ARC
5
126
100
AcDbEntity
8
0
100
AcDbCircle
10
-9.3711801419035286e-15
20
29.999999999999996
30
0
40
2.0547499999999985
210
0
220
0
230
1
100
AcDbArc
50
255.04728713366202
51
284.95271286633766
0
SPLINE
5
127
100
AcDbEntity
8
0
100
AcDbSpline
70
0
71
3
72
10
73
6
74
0
42
0.000000001
43
0.0000000001
44
0.0000000001
40
0.31931444256936503
40
0.31931444256936503
40
0.31931444256936503
40
0.31931444256936503
40
0.32859596045917622
40
0.32859596045917622
40
0.37694081721163913
40
0.37694081721163913
40
0.37694081721163913
40
0.37694081721163913
10
-1.0363300970012932
20
28.289438709063802
30
0
10
-1.0114665968767171
20
28.270892355512544
30
0
10
-0.98615864624386984
20
28.252918874096878
30
0
10
-0.82640357925790042
20
28.144972667181545
30
0
10
-0.68188635157301214
20
28.071000534094086
30
0
10
-0.53017021718865642
20
28.014825674328279
30
0
0
ARC
5
128
100
AcDbEntity
8
0
100
AcDbCircle
10
-9.3711801419035286e-15
20
29.999999999999996
30
0
40
1.9999999999999978
210
-0
220
0
230
1
100
AcDbArc
50
-58.790753125475128
51
238.79075312547806
0
SPLINE
5
129
100
AcDbEntity
8
0
100
AcDbSpline
70
0
71
3
72
8
73
4
74
0
42
0.000000001
43
0.0000000001
44
0.0000000001
40
0
40
0
40
0
40
0
40
0.058005531355534004
40
0.058005531355534004
40
0.058005531355534004
40
0.058005531355534004
10
0.53017021718862423
20
28.014825674328279
30
0
10
0.71149194538263194
20
28.081962387869815
30
0
10
0.88203275237054857
20
28.174335413978898
30
0
10
1.0363300970013554
20
28.289438709063866
30
0
0
ARC
5
130
100
AcDbEntity
8
0
100
AcDbCircle
10
-1.3549209970762957e-15
20
14.999999999999993
30
0
40
2.0547499999999981
210
0
220
0
230
1
100
AcDbArc
50
255.04728713366254
51
284.95271286633869
0
SPLINE
5
131
100
AcDbEntity
8
0
100
AcDbSpline
70
0
71
3
72
10
73
6
74
0
42
0.000000001
43
0.0000000001
44
0.0000000001
40
0.31931444256937475
40
0.31931444256937475
40
0.31931444256937475
40
0.31931444256937475
40
0.32859596045917294
40
0.32859596045917294
40
0.37694081721163553
40
0.37694081721163553
40
0.37694081721163553
40
0.37694081721163553
10
-1.0363300970011591
20
13.28943870906371
30
0
10
-1.0114665968766172
20
13.270892355512478
30
0
10
-0.98615864624380523
20
13.252918874096842
30
0
10
-0.82640357925787777
20
13.144972667181545
30
0
10
-0.68188635157300059
20
13.071000534094082
30
0
10
-0.53017021718862889
20
13.014825674328275
30
0
0
ARC
5
132
100
AcDbEntity
8
0
100
AcDbCircle
10
-1.3549209970762957e-15
20
14.999999999999993
30
0
40
1.9999999999999996
210
-0
220
0
230
1
100
AcDbArc
50
-58.790753125479803
51
238.79075312548244
0
SPLINE
5
133
100
AcDbEntity
8
0
100
AcDbSpline
70
0
71
3
72
8
73
4
74
0
42
0.000000001
43
0.0000000001
44
0.0000000001
40
0
40
0
40
0
40
0
40
0.058005531355514069
40
0.058005531355514069
40
0.058005531355514069
40
0.058005531355514069
10
0.53017021718866786
20
13.014825674328288
30
0
10
0.71149194538261229
20
13.081962387869801
30
0
10
0.88203275237047241
20
13.174335413978849
30
0
10
1.0363300970012328
20
13.289438709063766
30
0
0
ENDSEC
0
SECTION
2
OBJECTS
0
DICTIONARY
5
C
100
AcDbDictionary
3
ACAD_GROUP
350
D
3
ACAD_MLINESTYLE
350
17
0
DICTIONARY
5
D
100
AcDbDictionary
0
DICTIONARY
5
1A
330
C
100
AcDbDictionary
0
DICTIONARY
5
17
100
AcDbDictionary
0
ENDSEC
0
EOF
