0
SECTION
2
HEADER
9
$INSUNITS
70
4
9
$ACADVER
1
AC1014
9
$HANDSEED
5
FFFF
0
ENDSEC
0
SECTION
2
TABLES
0
TABLE
2
VPORT
5
8
100
AcDbSymbolTable
0
ENDTAB
0
TABLE
2
LTYPE
5
5
100
AcDbSymbolTable
0
LTYPE
5
14
100
AcDbSymbolTableRecord
100
AcDbLinetypeTableRecord
2
BYBLOCK
70
0
0
LTYPE
5
15
100
AcDbSymbolTableRecord
100
AcDbLinetypeTableRecord
2
BYLAYER
70
0
0
ENDTAB
0
TABLE
2
LAYER
5
2
100
AcDbSymbolTable
70
2
0
LAYER
5
50
100
AcDbSymbolTableRecord
100
AcDbLayerTableRecord
2
0
70
0
6
CONTINUOUS
0
ENDTAB
0
TABLE
2
STYLE
5
3
100
AcDbSymbolTable
70
1
0
STYLE
5
11
100
AcDbSymbolTableRecord
100
AcDbTextStyleTableRecord
2
STANDARD
70
0
0
ENDTAB
0
TABLE
2
VIEW
5
6
100
AcDbSymbolTable
70
0
0
ENDTAB
0
TABLE
2
UCS
5
7
100
AcDbSymbolTable
70
0
0
ENDTAB
0
TABLE
2
APPID
5
9
100
AcDbSymbolTable
70
2
0
APPID
5
12
100
AcDbSymbolTableRecord
100
AcDbRegAppTableRecord
2
ACAD
70
0
0
ENDTAB
0
TABLE
2
DIMSTYLE
5
A
100
AcDbSymbolTable
70
1
0
ENDTAB
0
TABLE
2
BLOCK_RECORD
5
1
100
AcDbSymbolTable
70
1
0
BLOCK_RECORD
5
1F
100
AcDbSymbolTableRecord
100
AcDbBlockTableRecord
2
*MODEL_SPACE
0
BLOCK_RECORD
5
1B
100
AcDbSymbolTableRecord
100
AcDbBlockTableRecord
2
*PAPER_SPACE
0
ENDTAB
0
ENDSEC
0
SECTION
2
BLOCKS
0
BLOCK
5
20
100
AcDbEntity
100
AcDbBlockBegin
2
*MODEL_SPACE
0
ENDBLK
5
21
100
AcDbEntity
100
AcDbBlockEnd
0
BLOCK
5
1C
100
AcDbEntity
100
AcDbBlockBegin
2
*PAPER_SPACE
0
ENDBLK
5
1D
100
AcDbEntity
100
AcDbBlockEnd
0
ENDSEC
0
SECTION
2
ENTITIES
0
CIRCLE
5
100
100
AcDbEntity
8
0
100
AcDbCircle
10
-13.010764773832459
20
-13.010764773832468
30
0
40
1.4999999999999991
210
0
220
-0
230
1
0
CIRCLE
5
101
100
AcDbEntity
8
0
100
AcDbCircle
10
18.399999999999999
20
-8.8410972626022736e-15
30
0
40
1.5000000000000013
210
0
220
-0
230
1
0
CIRCLE
5
102
100
AcDbEntity
8
0
100
AcDbCircle
10
-13.010764773832479
20
13.010764773832484
30
0
40
1.5000000000000013
210
0
220
-0
230
1
0
CIRCLE
5
103
100
AcDbEntity
8
0
100
AcDbCircle
10
13.010764773832456
20
-13.010764773832474
30
0
40
1.4999999999999991
210
0
220
-0
230
1
0
CIRCLE
5
104
100
AcDbEntity
8
0
100
AcDbCircle
10
-18.399999999999999
20
-8.8410972626022688e-15
30
0
40
1.5000000000000013
210
0
220
-0
230
1
0
CIRCLE
5
105
100
AcDbEntity
8
0
100
AcDbCircle
10
-1.1409406577174918e-16
20
18.400000000000016
30
0
40
1.4999999999999993
210
0
220
-0
230
1
0
CIRCLE
5
106
100
AcDbEntity
8
0
100
AcDbCircle
10
13.010764773832488
20
13.010764773832475
30
0
40
1.4999999999999991
210
0
220
-0
230
1
0
CIRCLE
5
107
100
AcDbEntity
8
0
100
AcDbCircle
10
-4.5549861642723786e-15
20
-18.399999999999981
30
0
40
1.5000000000000009
210
0
220
-0
230
1
0
CIRCLE
5
108
100
AcDbEntity
8
0
100
AcDbCircle
10
0
20
1.7763568394002505e-14
30
0
40
5
210
0
220
-0
230
1
0
ARC
5
109
100
AcDbEntity
8
0
100
AcDbCircle
10
-6.6335825721353103e-14
20
85
30
0
40
1.5430000000000192
210
0
220
-0
230
1
100
AcDbArc
50
3.0324409838832538
51
32.967559016112645
0
SPLINE
5
110
100
AcDbEntity
8
0
100
AcDbSpline
70
0
71
3
72
8
73
4
74
0
42
0.000000001
43
0.0000000001
44
0.0000000001
40
0
40
0
40
0
40
0
40
0.04784530303979205
40
0.04784530303979205
40
0.04784530303979205
40
0.04784530303979205
10
1.5408394018463607
20
85.081626819842668
30
0
10
1.5350729255625839
20
84.922246759728367
30
0
10
1.5045435138206869
20
84.764984882313925
30
0
10
1.4499516475688325
20
84.615760205454166
30
0
0
ARC
5
111
100
AcDbEntity
8
0
100
AcDbCircle
10
-6.6335825721353103e-14
20
85
30
0
40
1.4999999999999825
210
0
220
-0
230
1
100
AcDbArc
50
50.842323350231787
51
345.15767664981649
0
SPLINE
5
112
100
AcDbEntity
8
0
100
AcDbSpline
70
0
71
3
72
10
73
6
74
0
42
0.000000001
43
0.0000000001
44
0.0000000001
40
0.23759884514675381
40
0.23759884514675381
40
0.23759884514675381
40
0.23759884514675381
40
0.24852047511083561
40
0.24852047511083561
40
0.28514280399515934
40
0.28514280399515934
40
0.28514280399515934
40
0.28514280399515934
10
0.94718503932621223
20
86.163116718681536
30
0
10
0.97745855054409536
20
86.142767960394139
30
0
10
1.0070009705685519
20
86.121300662817347
30
0
10
1.1321662750093067
20
86.023180807124362
30
0
10
1.2189868132401962
20
85.93610394188417
30
0
10
1.2945443025913317
20
85.839645192106886
30
0
0
ARC
5
113
100
AcDbEntity
8
0
100
AcDbCircle
10
-4.6629367034256575e-14
20
69.999999999999986
30
0
40
1.5430000000000124
210
0
220
-0
230
1
100
AcDbArc
50
3.0324409838848165
51
32.967559016115096
0
SPLINE
5
114
100
AcDbEntity
8
0
100
AcDbSpline
70
0
71
3
72
8
73
4
74
0
42
0.000000001
43
0.0000000001
44
0.0000000001
40
0
40
0
40
0
40
0
40
0.047845303039908048
40
0.047845303039908048
40
0.047845303039908048
40
0.047845303039908048
10
1.5408394018463687
20
70.081626819842711
30
0
10
1.5350729255625808
20
69.922246759727997
30
0
10
1.5045435138205518
20
69.764984882313172
30
0
10
1.4499516475684495
20
69.6157602054531
30
0
0
ARC
5
115
100
AcDbEntity
8
0
100
AcDbCircle
10
-4.6629367034256575e-14
20
69.999999999999986
30
0
40
1.499999999999992
210
0
220
-0
230
1
100
AcDbArc
50
50.842323350234636
51
345.15767664977375
0
SPLINE
5
116
100
AcDbEntity
8
0
100
AcDbSpline
70
0
71
3
72
10
73
6
74
0
42
0.000000001
43
0.0000000001
44
0.0000000001
40
0.23759884514675267
40
0.23759884514675267
40
0.23759884514675267
40
0.23759884514675267
40
0.24852047511083536
40
0.24852047511083536
40
0.2851428039951433
40
0.2851428039951433
40
0.2851428039951433
40
0.2851428039951433
10
0.94718503932616893
20
71.163116718681579
30
0
10
0.97745855054406494
20
71.142767960394181
30
0
10
1.0070009705685314
20
71.121300662817362
30
0
10
1.1321662750092893
20
71.023180807124376
30
0
10
1.21898681324017
20
70.936103941884227
30
0
10
1.2945443025913255
20
70.839645192106929
30
0
0
ARC
5
117
100
AcDbEntity
8
0
100
AcDbCircle
10
-85
20
-6.8278716014447127e-14
30
0
40
1.5430000000000266
210
0
220
0
230
1
100
AcDbArc
50
93.03244098388322
51
122.9675590161125
0
SPLINE
5
118
100
AcDbEntity
8
0
100
AcDbSpline
70
0
71
3
72
8
73
4
74
0
42
0.000000001
43
0.0000000001
44
0.0000000001
40
0
40
0
40
0
40
0
40
0.04784530303979205
40
0.04784530303979205
40
0.04784530303979205
40
0.04784530303979205
10
-85.081626819842668
20
1.5408394018463658
30
0
10
-84.922246759728367
20
1.5350729255625895
30
0
10
-84.764984882313925
20
1.5045435138206926
30
0
10
-84.615760205454166
20
1.4499516475688377
30
0
0
ARC
5
119
100
AcDbEntity
8
0
100
AcDbCircle
10
-85
20
-6.8278716014447127e-14
30
0
40
1.4999999999999869
210
0
220
0
230
1
100
AcDbArc
50
-219.1576766497684
51
75.15767664981658
0
SPLINE
5
120
100
AcDbEntity
8
0
100
AcDbSpline
70
0
71
3
72
10
73
6
74
0
42
0.000000001
43
0.0000000001
44
0.0000000001
40
0.23759884514675381
40
0.23759884514675381
40
0.23759884514675381
40
0.23759884514675381
40
0.24852047511083561
40
0.24852047511083561
40
0.28514280399515934
40
0.28514280399515934
40
0.28514280399515934
40
0.28514280399515934
10
-86.163116718681536
20
0.94718503932621767
30
0
10
-86.142767960394139
20
0.97745855054410047
30
0
10
-86.121300662817347
20
1.007000970568557
30
0
10
-86.023180807124362
20
1.132166275009312
30
0
10
-85.93610394188417
20
1.2189868132402015
30
0
10
-85.839645192106886
20
1.2945443025913366
30
0
0
ARC
5
121
100
AcDbEntity
8
0
100
AcDbCircle
10
-69.999999999999986
20
-4.5796699765787707e-14
30
0
40
1.5430000000000161
210
0
220
0
230
1
100
AcDbArc
50
93.03244098388484
51
122.967559016115
0
SPLINE
5
122
100
AcDbEntity
8
0
100
AcDbSpline
70
0
71
3
72
8
73
4
74
0
42
0.000000001
43
0.0000000001
44
0.0000000001
40
0
40
0
40
0
40
0
40
0.047845303039908048
40
0.047845303039908048
40
0.047845303039908048
40
0.047845303039908048
10
-70.081626819842711
20
1.5408394018463731
30
0
10
-69.922246759727997
20
1.535072925562585
30
0
10
-69.764984882313172
20
1.5045435138205558
30
0
10
-69.6157602054531
20
1.449951647568454
30
0
0
ARC
5
123
100
AcDbEntity
8
0
100
AcDbCircle
10
-69.999999999999986
20
-4.5796699765787707e-14
30
0
40
1.4999999999999942
210
0
220
0
230
1
100
AcDbArc
50
-219.15767664976545
51
75.157676649773776
0
SPLINE
5
124
100
AcDbEntity
8
0
100
AcDbSpline
70
0
71
3
72
10
73
6
74
0
42
0.000000001
43
0.0000000001
44
0.0000000001
40
0.23759884514675267
40
0.23759884514675267
40
0.23759884514675267
40
0.23759884514675267
40
0.24852047511083536
40
0.24852047511083536
40
0.2851428039951433
40
0.2851428039951433
40
0.2851428039951433
40
0.2851428039951433
10
-71.163116718681579
20
0.94718503932617337
30
0
10
-71.142767960394181
20
0.97745855054406938
30
0
10
-71.121300662817362
20
1.0070009705685359
30
0
10
-71.023180807124376
20
1.1321662750092938
30
0
10
-70.936103941884227
20
1.2189868132401744
30
0
10
-70.839645192106929
20
1.2945443025913299
30
0
0
ARC
5
125
100
AcDbEntity
8
0
100
AcDbCircle
10
85
20
6.7723604502134549e-14
30
0
40
1.5430000000000152
210
0
220
0
230
1
100
AcDbArc
50
273.03244098388319
51
302.96755901611272
0
SPLINE
5
126
100
AcDbEntity
8
0
100
AcDbSpline
70
0
71
3
72
8
73
4
74
0
42
0.000000001
43
0.0000000001
44
0.0000000001
40
0
40
0
40
0
40
0
40
0.04784530303979205
40
0.04784530303979205
40
0.04784530303979205
40
0.04784530303979205
10
85.081626819842668
20
-1.5408394018463556
30
0
10
84.922246759728367
20
-1.535072925562579
30
0
10
84.764984882313925
20
-1.504543513820682
30
0
10
84.615760205454166
20
-1.4499516475688277
30
0
0
ARC
5
127
100
AcDbEntity
8
0
100
AcDbCircle
10
85
20
6.7723604502134549e-14
30
0
40
1.49999999999998
210
0
220
0
230
1
100
AcDbArc
50
-39.157676649768113
51
255.15767664981647
0
SPLINE
5
128
100
AcDbEntity
8
0
100
AcDbSpline
70
0
71
3
72
10
73
6
74
0
42
0.000000001
43
0.0000000001
44
0.0000000001
40
0.23759884514675381
40
0.23759884514675381
40
0.23759884514675381
40
0.23759884514675381
40
0.24852047511083561
40
0.24852047511083561
40
0.28514280399515934
40
0.28514280399515934
40
0.28514280399515934
40
0.28514280399515934
10
86.163116718681536
20
-0.94718503932620701
30
0
10
86.142767960394139
20
-0.97745855054409003
30
0
10
86.121300662817347
20
-1.0070009705685465
30
0
10
86.023180807124362
20
-1.1321662750093013
30
0
10
85.93610394188417
20
-1.2189868132401909
30
0
10
85.839645192106886
20
-1.2945443025913264
30
0
0
ARC
5
129
100
AcDbEntity
8
0
100
AcDbCircle
10
69.999999999999986
20
5.440092820663267e-14
30
0
40
1.5430000000000161
210
0
220
0
230
1
100
AcDbArc
50
273.03244098388484
51
302.96755901611499
0
SPLINE
5
130
100
AcDbEntity
8
0
100
AcDbSpline
70
0
71
3
72
8
73
4
74
0
42
0.000000001
43
0.0000000001
44
0.0000000001
40
0
40
0
40
0
40
0
40
0.047845303039908048
40
0.047845303039908048
40
0.047845303039908048
40
0.047845303039908048
10
70.081626819842711
20
-1.5408394018463643
30
0
10
69.922246759727997
20
-1.5350729255625764
30
0
10
69.764984882313172
20
-1.5045435138205474
30
0
10
69.6157602054531
20
-1.4499516475684451
30
0
0
ARC
5
131
100
AcDbEntity
8
0
100
AcDbCircle
10
69.999999999999986
20
5.440092820663267e-14
30
0
40
1.4999999999999938
210
0
220
0
230
1
100
AcDbArc
50
-39.15767664976547
51
255.15767664977375
0
SPLINE
5
132
100
AcDbEntity
8
0
100
AcDbSpline
70
0
71
3
72
10
73
6
74
0
42
0.000000001
43
0.0000000001
44
0.0000000001
40
0.23759884514675267
40
0.23759884514675267
40
0.23759884514675267
40
0.23759884514675267
40
0.24852047511083536
40
0.24852047511083536
40
0.2851428039951433
40
0.2851428039951433
40
0.2851428039951433
40
0.2851428039951433
10
71.163116718681579
20
-0.94718503932616471
30
0
10
71.142767960394181
20
-0.9774585505440605
30
0
10
71.121300662817362
20
-1.007000970568527
30
0
10
71.023180807124376
20
-1.1321662750092849
30
0
10
70.936103941884227
20
-1.2189868132401656
30
0
10
70.839645192106929
20
-1.294544302591321
30
0
0
ARC
5
133
100
AcDbEntity
8
0
100
AcDbCircle
10
4.829470157119431e-14
20
-69.999999999999986
30
0
40
1.5430000000000055
210
0
220
0
230
1
100
AcDbArc
50
183.03244098388481
51
212.96755901611522
0
SPLINE
5
134
100
AcDbEntity
8
0
100
AcDbSpline
70
0
71
3
72
8
73
4
74
0
42
0.000000001
43
0.0000000001
44
0.0000000001
40
0
40
0
40
0
40
0
40
0.047845303039908048
40
0.047845303039908048
40
0.047845303039908048
40
0.047845303039908048
10
-1.54083940184636
20
-70.081626819842711
30
0
10
-1.5350729255625724
20
-69.922246759727997
30
0
10
-1.5045435138205432
20
-69.764984882313172
30
0
10
-1.4499516475684411
20
-69.6157602054531
30
0
0
ARC
5
135
100
AcDbEntity
8
0
100
AcDbCircle
10
4.829470157119431e-14
20
-69.999999999999986
30
0
40
1.4999999999999871
210
0
220
0
230
1
100
AcDbArc
50
-129.15767664976511
51
165.15767664977369
0
SPLINE
5
136
100
AcDbEntity
8
0
100
AcDbSpline
70
0
71
3
72
10
73
6
74
0
42
0.000000001
43
0.0000000001
44
0.0000000001
40
0.23759884514675267
40
0.23759884514675267
40
0.23759884514675267
40
0.23759884514675267
40
0.24852047511083536
40
0.24852047511083536
40
0.2851428039951433
40
0.2851428039951433
40
0.2851428039951433
40
0.2851428039951433
10
-0.94718503932616038
20
-71.163116718681579
30
0
10
-0.97745855054405639
20
-71.142767960394181
30
0
10
-1.007000970568523
20
-71.121300662817362
30
0
10
-1.1321662750092807
20
-71.023180807124376
30
0
10
-1.2189868132401613
20
-70.936103941884227
30
0
10
-1.294544302591317
20
-70.839645192106929
30
0
0
ARC
5
137
100
AcDbEntity
8
0
100
AcDbCircle
10
7.2997163869104043e-14
20
-85
30
0
40
1.5430000000000152
210
0
220
0
230
1
100
AcDbArc
50
183.03244098388325
51
212.96755901611274
0
SPLINE
5
138
100
AcDbEntity
8
0
100
AcDbSpline
70
0
71
3
72
8
73
4
74
0
42
0.000000001
43
0.0000000001
44
0.0000000001
40
0
40
0
40
0
40
0
40
0.04784530303979205
40
0.04784530303979205
40
0.04784530303979205
40
0.04784530303979205
10
-1.5408394018463503
20
-85.081626819842668
30
0
10
-1.5350729255625737
20
-84.922246759728367
30
0
10
-1.5045435138206771
20
-84.764984882313925
30
0
10
-1.4499516475688223
20
-84.615760205454166
30
0
0
ARC
5
139
100
AcDbEntity
8
0
100
AcDbCircle
10
7.2997163869104043e-14
20
-85
30
0
40
1.49999999999998
210
0
220
0
230
1
100
AcDbArc
50
-129.15767664976812
51
165.15767664981647
0
SPLINE
5
140
100
AcDbEntity
8
0
100
AcDbSpline
70
0
71
3
72
10
73
6
74
0
42
0.000000001
43
0.0000000001
44
0.0000000001
40
0.23759884514675381
40
0.23759884514675381
40
0.23759884514675381
40
0.23759884514675381
40
0.24852047511083561
40
0.24852047511083561
40
0.28514280399515934
40
0.28514280399515934
40
0.28514280399515934
40
0.28514280399515934
10
-0.94718503932620157
20
-86.163116718681536
30
0
10
-0.97745855054408481
20
-86.142767960394139
30
0
10
-1.0070009705685412
20
-86.121300662817347
30
0
10
-1.1321662750092962
20
-86.023180807124362
30
0
10
-1.2189868132401858
20
-85.93610394188417
30
0
10
-1.294544302591321
20
-85.839645192106886
30
0
0
LWPOLYLINE
5
141
100
AcDbEntity
8
0
100
AcDbPolyline
90
16
70
1
43
0.0
10
-25.000000149011612
20
-90.000001341104507
10
25.000000149011612
20
-90.000001341104507
10
25.000000149011612
20
-64.999998658895493
10
25.000000149011605
20
-25.000000149011612
10
65.000001341104507
20
-25.000000149011626
10
90.000001341104507
20
-25.000000149011612
10
90.000001341104507
20
25.000000149011612
10
64.999998658895493
20
25.000000149011612
10
25.000000149011612
20
25.000000149011605
10
25.000000149011619
20
90.000001341104507
10
-25.000000149011605
20
90.000001341104507
10
-25.000000149011608
20
25.000000149011612
10
-90.000001341104507
20
25.000000149011626
10
-90.000001341104507
20
-25.000000149011598
10
-25.000000149011619
20
-25.000000149011619
10
-25.000000149011619
20
-65.000001341104493
0
ENDSEC
0
SECTION
2
OBJECTS
0
DICTIONARY
5
C
100
AcDbDictionary
3
ACAD_GROUP
350
D
3
ACAD_MLINESTYLE
350
17
0
DICTIONARY
5
D
100
AcDbDictionary
0
DICTIONARY
5
1A
330
C
100
AcDbDictionary
0
DICTIONARY
5
17
100
AcDbDictionary
0
ENDSEC
0
EOF
